<svg>
  <symbol xmlns="http://www.w3.org/2000/svg" viewBox="0 0 25.594 25.62" id="instagram">
    <path d="M22.388 25.61h-19.2a3.2 3.2 0 0 1-3.2-3.2V3.21a3.2 3.2 0 0 1 3.2-3.2h19.2a3.2 3.2 0 0 1 3.2 3.2v19.2a3.2 3.2 0 0 1-3.2 3.2zm-9.6-17.76a4.954 4.954 0 0 0-4.5 2.88.244.244 0 0 1-.022.05 6.4 6.4 0 0 0-.128.33c-.019.05-.04.1-.057.15-.037.11-.067.23-.1.34-.014.05-.03.11-.042.16-.026.12-.044.24-.061.37-.007.05-.017.1-.023.15a5.074 5.074 0 0 0-.029.53 4.96 4.96 0 1 0 9.92 0 5.074 5.074 0 0 0-.029-.53c-.006-.05-.016-.1-.023-.15a4.462 4.462 0 0 0-.061-.37 4.716 4.716 0 0 0-.042-.16c-.028-.11-.058-.23-.1-.34-.017-.05-.038-.1-.057-.15a6.4 6.4 0 0 0-.128-.33.244.244 0 0 1-.022-.05 4.954 4.954 0 0 0-4.496-2.88zm9.92-3.68a1.278 1.278 0 0 0-1.28-1.28h-2.56a1.278 1.278 0 0 0-1.28 1.28v2.56a1.278 1.278 0 0 0 1.28 1.28h2.56a1.278 1.278 0 0 0 1.28-1.28V4.17zm0 6.56h-2.36a7.84 7.84 0 1 1-15.12 0h-2.36v10.72a1.278 1.278 0 0 0 1.28 1.28h17.28a1.278 1.278 0 0 0 1.28-1.28V10.73z"></path>
  </symbol>
  <symbol xmlns="http://www.w3.org/2000/svg" viewBox="0 0 19.594 25.62" id="pinterest">
    <path d="M8.145 16.63c-.209.84-.42 1.71-.638 2.56a18.96 18.96 0 0 1-.718 2.47 12.691 12.691 0 0 1-2.043 3.53c-.575.66-.453.4-.626.36-.132-.03-.143-.16-.169-.34a19.314 19.314 0 0 1 .007-3.34 18.15 18.15 0 0 1 .589-3.48c.484-2.06.946-4.08 1.435-6.16a1.422 1.422 0 0 0 .09-.44 6.471 6.471 0 0 1-.429-1.7 5.448 5.448 0 0 1 .139-1.95A3.224 3.224 0 0 1 7.676 5.8a2.206 2.206 0 0 1 1.735.14 1.851 1.851 0 0 1 .867 1.24 4.463 4.463 0 0 1-.08 1.89c-.267 1.22-.618 2.14-.937 3.31a3.648 3.648 0 0 0-.189 1.81 2.119 2.119 0 0 0 .847 1.28 2.493 2.493 0 0 0 1.625.46 3.572 3.572 0 0 0 2.651-1.57 9.309 9.309 0 0 0 1.675-4.69 11.565 11.565 0 0 0 .07-2.01 5.473 5.473 0 0 0-1.127-3.12 5.282 5.282 0 0 0-2.512-1.71 8.285 8.285 0 0 0-3.747-.23 6.613 6.613 0 0 0-4.915 3.53 7.085 7.085 0 0 0-.837 3.41 4.438 4.438 0 0 0 .678 2.5c.133.2.328.37.458.6a1.718 1.718 0 0 1-.119 1.16c-.11.43-.122 1.01-.618 1.02a1.377 1.377 0 0 1-.638-.24 5.108 5.108 0 0 1-2.422-3.74 8.878 8.878 0 0 1 0-3.23 9.244 9.244 0 0 1 4.4-6.15A10.4 10.4 0 0 1 8.448.12a13.322 13.322 0 0 1 1.605-.13 9.627 9.627 0 0 1 4.326.8 8.862 8.862 0 0 1 2.98 2.15 8.14 8.14 0 0 1 1.834 3.31 7.922 7.922 0 0 1 .4 2.29 13.861 13.861 0 0 1-.308 2.37 9.315 9.315 0 0 1-3.838 6.45 6.924 6.924 0 0 1-4 1.1 4.642 4.642 0 0 1-1.983-.58 3.306 3.306 0 0 1-1.319-1.25z"></path>
  </symbol>
  <symbol xmlns="http://www.w3.org/2000/svg" viewBox="0 0 12.031 25.62" id="facebook">
    <path d="M11.995.01v4.12s-3.037-.3-3.8.86c-.416.64-.169 2.5-.206 3.84h4.029c-.34 1.56-.584 2.62-.835 3.98H7.967v12.8H2.385V12.86H.01V8.83h2.349c.12-2.95.165-5.87 1.629-7.35C5.634-.19 7.206.01 11.995.01z"></path>
  </symbol>
  <symbol xmlns="http://www.w3.org/2000/svg" viewBox="0 0 25.594 20.79" id="twitter">
    <path d="M17.419.01a5.393 5.393 0 0 1 4.151 1.65 8.665 8.665 0 0 0 2.691-.91l.653-.36a5.272 5.272 0 0 1-1.7 2.47 2.512 2.512 0 0 1-.577.41v.01a9.769 9.769 0 0 0 2.973-.8v.01a8.535 8.535 0 0 1-1.781 2.04c-.273.22-.547.44-.82.65a15.155 15.155 0 0 1-.243 3.38c-1.312 5.89-4.788 9.89-10.289 11.61a15.83 15.83 0 0 1-7.432.31 19.915 19.915 0 0 1-3.087-1.01 12.912 12.912 0 0 1-1.487-.77c-.154-.09-.307-.19-.461-.28a9.219 9.219 0 0 0 1.678.06c.517-.08 1.023-.06 1.5-.16a10.77 10.77 0 0 0 3.151-1.14 5.97 5.97 0 0 0 1.423-.93 4.58 4.58 0 0 1-1.563-.28 5.294 5.294 0 0 1-3.332-3.36 5.194 5.194 0 0 0 2.345-.11 3.767 3.767 0 0 1-1.717-.69 5.032 5.032 0 0 1-2.473-4.49c.18.08.359.17.538.25a5.152 5.152 0 0 0 1.1.31 1.444 1.444 0 0 0 .718.06h-.026c-.264-.3-.695-.51-.961-.84a5.365 5.365 0 0 1-1.179-4.76A6 6 0 0 1 1.776.97c.009 0 .017.01.026.01a3.044 3.044 0 0 0 .474.55 9.443 9.443 0 0 0 1.563 1.5 15.43 15.43 0 0 0 6.419 3.1 10.137 10.137 0 0 0 2.358.31 4.908 4.908 0 0 1 .025-2.47A5.165 5.165 0 0 1 15.614.45 5.9 5.9 0 0 1 16.78.09c.212-.03.426-.05.639-.08z"></path>
  </symbol>
</svg>